<?xml version="1.0" standalone="no"?>
<!DOCTYPE svg PUBLIC "-//W3C//DTD SVG 20010904//EN"
 "http://www.w3.org/TR/2001/REC-SVG-20010904/DTD/svg10.dtd">
<svg version="1.0" xmlns="http://www.w3.org/2000/svg"
 width="400.000000pt" height="421.000000pt" viewBox="0 0 400.000000 421.000000"
 preserveAspectRatio="xMidYMid meet">

<g transform="translate(0.000000,421.000000) scale(0.100000,-0.100000)"
fill="#000000" stroke="none">
<path d="M1535 4100 c-9 -14 182 -378 317 -603 67 -111 137 -244 162 -305 24
-59 64 -150 90 -202 l46 -96 -40 -131 c-28 -92 -56 -159 -93 -222 l-52 -91
-110 -34 c-110 -35 -110 -35 -228 -26 -66 5 -194 23 -285 40 -92 17 -232 40
-312 50 -80 11 -174 24 -210 29 -36 6 -135 15 -220 20 -85 6 -198 14 -250 17
-52 4 -93 4 -90 1 3 -3 84 -22 180 -42 328 -68 602 -176 662 -260 21 -31 24
-42 18 -77 -5 -25 -17 -48 -31 -59 -67 -51 -228 -115 -493 -195 -334 -101
-310 -93 -304 -100 3 -2 52 4 109 16 148 29 244 47 404 75 77 14 160 29 185
35 41 9 156 25 360 50 41 5 146 18 232 29 144 18 164 19 255 5 54 -7 150 -29
213 -48 l115 -34 95 -234 c52 -129 100 -241 106 -249 7 -8 15 -34 18 -59 4
-25 12 -74 17 -110 11 -65 11 -65 -54 -260 -36 -107 -84 -256 -107 -330 -23
-74 -75 -236 -116 -360 -68 -207 -73 -226 -57 -238 9 -6 20 -12 23 -12 9 0
157 161 270 293 51 59 96 107 100 107 8 0 196 225 533 634 60 72 121 156 136
186 66 127 101 313 80 415 -11 54 -20 67 -82 132 -76 79 -80 96 -23 111 20 6
49 20 65 31 16 12 36 21 43 21 21 0 124 74 189 135 41 39 67 55 95 60 67 11
67 11 47 46 -10 17 -54 66 -98 110 -76 75 -84 81 -170 108 -128 41 -140 43
-189 30 -74 -18 -78 -13 -41 64 19 37 38 88 43 114 14 62 -5 112 -92 242 -65
97 -263 327 -327 379 -17 15 -80 67 -138 116 -230 194 -492 397 -606 471 -66
42 -132 86 -147 96 -45 31 -210 119 -224 119 -7 0 -16 -4 -19 -10z"/>
</g>
</svg>
