<svg id="Layer_1" data-name="Layer 1" xmlns="http://www.w3.org/2000/svg" viewBox="0 0 48 47.1"><path d="M46.36,18.25l-1.64-9.5L41,11.88a15.82,15.82,0,0,0-26.25,11.9s0,.1,0,.14A10.55,10.55,0,0,1,31.4,15.39a10.78,10.78,0,0,1,2.44,2.42L29.9,21.09,39,24.42l9,3.33Z" transform="translate(0 -0.45)"/><path d="M43.74,33.79l-1.33-.94c-.53-.38,0-1.75,0-1.75l0,0a20.57,20.57,0,0,0,.9-3.22L34.1,24.48A10.56,10.56,0,0,1,13,23.92h0a1.38,1.38,0,0,1,0-.14A17.52,17.52,0,0,1,39.13,8.49l.27-.37a1.36,1.36,0,0,0-.32-1.88L35.22,3.5a1.33,1.33,0,0,0-1.87.32l-1,1.32c-.38.54-1.75,0-1.75,0l0,0A19.71,19.71,0,0,0,25.38,4V4s-1.46-.13-1.57-.78-.28-1.6-.28-1.6A1.33,1.33,0,0,0,22,.47l-4.66.79a1.33,1.33,0,0,0-1.1,1.55s.16,1,.27,1.6-1.23,1.25-1.23,1.25v0a20,20,0,0,0-4.57,2.87h0S9.53,9.48,9,9.1L7.68,8.16a1.35,1.35,0,0,0-1.88.32L3.06,12.33a1.34,1.34,0,0,0,.31,1.88l1.33.94c.53.38,0,1.76,0,1.76h0a19.87,19.87,0,0,0-1.21,5.26h0s-.13,1.47-.77,1.58L1.12,24A1.34,1.34,0,0,0,0,25.58l.79,4.67a1.35,1.35,0,0,0,1.55,1.1L4,31.08c.65-.11,1.25,1.23,1.25,1.23h0A20.2,20.2,0,0,0,8.1,36.87v0S9,38,8.65,38.55l-.94,1.33A1.35,1.35,0,0,0,8,41.76l3.85,2.74a1.35,1.35,0,0,0,1.88-.32l.94-1.33c.38-.53,1.76,0,1.76,0v0A19.78,19.78,0,0,0,21.73,44v0s1.47.13,1.58.78.27,1.6.27,1.6a1.34,1.34,0,0,0,1.55,1.1l4.66-.79a1.34,1.34,0,0,0,1.11-1.55l-.27-1.6c-.11-.65,1.23-1.25,1.23-1.25v0a20.2,20.2,0,0,0,4.56-2.87l0,0s1.13-.95,1.67-.57l1.32.94a1.35,1.35,0,0,0,1.88-.31l2.74-3.86a1.35,1.35,0,0,0-.31-1.88Z" transform="translate(0 -0.45)"/></svg>