<svg xmlns="http://www.w3.org/2000/svg" width="24" height="23.55" viewBox="0 0 24 23.55"><path d="M23.18,9.12l-.82-4.75L20.48,5.94a7.91,7.91,0,0,0-13.12,6V12A5.27,5.27,0,0,1,15.7,7.7a5.19,5.19,0,0,1,1.22,1.21l-2,1.64,4.53,1.66L24,13.88Z" transform="translate(0 -0.22)"/><path d="M21.87,16.9l-.67-.48c-.26-.19,0-.87,0-.87h0a10.44,10.44,0,0,0,.45-1.61l-4.59-1.69A5.28,5.28,0,0,1,6.5,12h0s0,0,0-.07A8.76,8.76,0,0,1,19.57,4.25l.13-.19a.68.68,0,0,0-.16-.94L17.61,1.75a.68.68,0,0,0-.94.16l-.47.66c-.19.27-.88,0-.88,0h0A10.14,10.14,0,0,0,12.69,2h0s-.74-.06-.79-.38-.14-.8-.14-.8A.67.67,0,0,0,11,.23L8.65.63a.68.68,0,0,0-.55.77s.08.48.14.81-.62.62-.62.62h0A10.26,10.26,0,0,0,5.34,4.27h0s-.56.47-.83.28l-.66-.47a.67.67,0,0,0-.94.16L1.53,6.17a.67.67,0,0,0,.16.94l.66.47c.27.19,0,.88,0,.88h0a10.12,10.12,0,0,0-.6,2.63h0s-.06.73-.39.79L.56,12a.68.68,0,0,0-.55.78L.4,15.12a.67.67,0,0,0,.78.55l.8-.13c.33-.06.63.62.63.62h0a10.32,10.32,0,0,0,1.43,2.29H4s.48.56.29.83l-.47.66a.67.67,0,0,0,.15.94l1.93,1.37a.67.67,0,0,0,.94-.16l.47-.66c.19-.27.88,0,.88,0h0a10.39,10.39,0,0,0,2.62.61h0s.73.06.78.38.14.81.14.81a.68.68,0,0,0,.77.55l2.34-.4a.67.67,0,0,0,.55-.77s-.08-.48-.14-.8.62-.63.62-.63h0a10.26,10.26,0,0,0,2.28-1.43h0s.57-.47.83-.28l.67.47a.65.65,0,0,0,.93-.16L22,17.83a.67.67,0,0,0-.16-.93Z" transform="translate(0 -0.22)"/></svg>