<?xml version="1.0" encoding="UTF-8"?>
<svg width="700pt" height="700pt" version="1.1" viewBox="0 0 700 700" xmlns="http://www.w3.org/2000/svg">
 <path d="m647.5 146.24c2.875-1.2734 6.1641-1.207 9.0625 0.15234 2.8516 1.3828 4.957 3.9492 5.7695 7.0195l37.207 141.68c1.5352 5.8164-1.9102 11.762-7.7227 13.297-0.89844 0.24219-1.8438 0.35156-2.7422 0.35156-4.8281 0-9.2344-3.2266-10.488-8.0977l-34.004-129.39-96.859 42.562c0.96484 7.1953 1.6016 14.48 1.6016 21.895 0 12.551-1.4023 24.793-4.082 36.617l128.91 93.547c4.2578 3.0938 5.6836 8.8164 3.4023 13.559l-77.949 161.73c-1.8672 3.8633-5.75 6.1445-9.7656 6.1445-1.6016 0-3.2031-0.35156-4.7148-1.0977-5.3984-2.6094-7.6562-9.1055-5.0469-14.523l73.977-153.51-115.55-83.871c-9.3438 24.945-24.461 47.434-43.922 66.234l41.508 30.977c2.2617 1.7109 3.7969 4.2344 4.2344 7.0664l10.906 70.422c0.89844 5.9453-3.1367 11.496-9.082 12.418-0.55078 0.085937-1.1211 0.13281-1.668 0.13281-5.2656 0-9.875-3.8398-10.707-9.2148l-10.203-66.035-41.77-31.156c-35.082 26.941-80.34 43.266-129.77 43.266-48.613 0-93.262-15.73-128.08-41.883l-39.906 29.773-10.223 66.035c-0.8125 5.375-5.4414 9.2148-10.684 9.2148-0.55078 0-1.1406-0.046876-1.6914-0.13281-5.9219-0.92188-9.957-6.4727-9.0586-12.418l10.883-70.422c0.45703-2.832 1.9727-5.3555 4.2539-7.0664l39.469-29.465c-19.68-18.602-34.973-40.957-44.625-65.77l-112.83 81.895 74 153.51c2.6133 5.418 0.33203 11.914-5.043 14.523-1.5156 0.74609-3.1406 1.0977-4.7188 1.0977-4.0352 0-7.8984-2.2812-9.7617-6.1445l-77.973-161.73c-2.2812-4.7422-0.83203-10.465 3.4258-13.559l125.95-91.398c-2.9844-12.504-4.6523-25.449-4.6523-38.766 0-7.918 0.74609-15.688 1.8203-23.344l-93.547-41.113-34.004 129.39c-1.2734 4.8711-5.6836 8.0977-10.488 8.0977-0.89844 0-1.8398-0.10938-2.7422-0.35156-5.8125-1.5352-9.2578-7.4805-7.7422-13.297l37.23-141.68c0.78906-3.0703 2.918-5.6367 5.7461-7.0195 2.8984-1.3594 6.2109-1.4258 9.082-0.15234l101.09 44.402c6.0117-21.41 16.082-41.375 29.617-59.035l-77.375-87.801-71.41 15.008c-5.7734 1.25-11.586-2.5234-12.836-8.4023-1.2305-5.8828 2.5234-11.652 8.3789-12.879l77.578-16.324c3.7734-0.8125 7.7656 0.50391 10.355 3.4453l79.723 90.434c36.902-37.977 90.738-62.09 150.79-62.09 62.879 0 119.06 26.328 156.01 67.465l84.441-95.809c2.6133-2.9414 6.5156-4.2344 10.355-3.4453l77.574 16.324c5.8828 1.2266 9.6094 6.9961 8.4062 12.879-1.2734 5.8789-7.0898 9.6523-12.859 8.4023l-71.41-15.008-82.84 94.008c11.562 16.477 20.25 34.73 25.559 54.211zm-299.46-71.5c-99.008 0-179.59 72.223-179.59 160.96 0 45.371 21.148 86.328 54.957 115.62 2.5469 0.50391 4.9805 1.8203 6.668 4.1016 0.50781 0.67969 0.70313 1.4492 1.0312 2.1719 31.461 24.289 72.27 39.074 116.93 39.074 99.031 0 179.59-72.223 179.59-160.96 0-88.742-80.562-160.96-179.59-160.96zm71.324 200.3c-17.988 0-32.559-14.609-32.559-32.621s14.57-32.625 32.559-32.625c17.969 0 32.535 14.613 32.535 32.625s-14.566 32.621-32.535 32.621zm-148.81 10.883c-23.957 0-43.395-19.48-43.395-43.504s19.438-43.508 43.395-43.508c23.961 0 43.375 19.484 43.375 43.508s-19.414 43.504-43.375 43.504z" fill-rule="evenodd"/>
</svg>
