<svg id="Layer_1" data-name="Layer 1" xmlns="http://www.w3.org/2000/svg" viewBox="0 0 48 43.23"><path d="M8.9,28.9a8.33,8.33,0,0,0,4-2.6l-1.33-1.12h0A6.55,6.55,0,1,1,4.22,14.85a6.33,6.33,0,0,1,1-.31c0,.11,0,.21,0,.31h0a6.48,6.48,0,0,0,2,4.72l1.21-1.26A4.79,4.79,0,0,1,10,10.42L9.28,8.81a6.5,6.5,0,0,0-3.67,3.91,9.6,9.6,0,0,0-1.07.2,8.1,8.1,0,0,1-.17-1.56,8.3,8.3,0,0,1,8.29-8.29A8.19,8.19,0,0,1,17,4.32L13.11,31.74a.86.86,0,0,0,.25.75.88.88,0,0,0,.77.23l5-.91h0A6.11,6.11,0,0,1,8.89,28.9Zm12.58,2.48,1-.17-.19,1a6,6,0,0,1-.79-.8Zm2.94-1.09a.82.82,0,0,0-.18-.72.83.83,0,0,0-.67-.32h-.16L15,30.79,19.09,2.2H30.23L23.61,22.88a.87.87,0,0,0,1,1.12l7.9-1.44L21.4,45.42ZM39.27,37.1a4.33,4.33,0,0,1-3.56-1.87,6.51,6.51,0,0,0,3-1.44,7.65,7.65,0,0,0,4.6.56,4.38,4.38,0,0,1-4,2.75Zm2.62-4.36a6.2,6.2,0,0,1-2-.34A6.52,6.52,0,0,0,41,28.81H39.27a4.8,4.8,0,0,1-7.35,4.06A7.8,7.8,0,0,0,34,27.5H32.29a6.07,6.07,0,0,1-2.71,5.08l5.24-10.81a.84.84,0,0,0-.09-.9.87.87,0,0,0-.85-.34L25.72,22l.19-.61.28,0v-.85l4.1-12.81a7.85,7.85,0,0,1-.8,9.21l1.31,1.15a9.58,9.58,0,0,0,.95-11.31,6.52,6.52,0,0,1,8.34.94,6.61,6.61,0,0,1,1.78,4.1,6.54,6.54,0,0,0-6.09,6.52,6.48,6.48,0,0,0,.93,3.35l1.49-.91a4.64,4.64,0,0,1-.67-2.44,4.8,4.8,0,0,1,9.12-2.11,4.84,4.84,0,0,1,0,4.17,7.83,7.83,0,0,0-4.77-1.62v1.74a6.11,6.11,0,0,1,0,12.22Z" transform="translate(0 -2.2)"/></svg>