<svg id="Layer_1" data-name="Layer 1" xmlns="http://www.w3.org/2000/svg" viewBox="0 0 48 48"><path d="M38.4,46.4H24V48H38.4a4.06,4.06,0,0,0,2.65-1L40,45.8a2.4,2.4,0,0,1-1.59.6Z" transform="translate(0)"/><path d="M42.17,6.63,35.77.23A.81.81,0,0,0,35.2,0H9.6a4,4,0,0,0-4,4V28H7.2V4A2.41,2.41,0,0,1,9.6,1.6H34.4v4A2.39,2.39,0,0,0,36.8,8h4V25.6h1.6V7.2a.81.81,0,0,0-.23-.57ZM36.8,6.4a.8.8,0,0,1-.8-.8V2.73L39.67,6.4Z" transform="translate(0)"/><path d="M44,36.8H24a.77.77,0,0,0-.44.14l-2.2,1.46H20a2.4,2.4,0,1,0,0,4.8h1.36l2.2,1.46a.77.77,0,0,0,.44.14H44a4,4,0,0,0,0-8ZM20.8,41.6H20A.8.8,0,0,1,20,40h.8ZM24,43,22.4,42V39.63L24,38.56Zm15.2.16H25.6V41.6H39.2Zm0-3.2H25.6V38.4H39.2Zm2.4,3.2h-.8V38.4h.8Zm2.4,0h-.8V38.4H44a2.4,2.4,0,1,1,0,4.8Z" transform="translate(0)"/><path d="M47.2,27.2H18.4a.8.8,0,0,0-.8.8v6.4a.79.79,0,0,0,.8.8H47.2a.79.79,0,0,0,.8-.8V28a.79.79,0,0,0-.8-.8Zm-.8,6.4H43.2V30.4H41.6v3.2H40V32H38.4v1.6H36.8V32H35.2v1.6H33.6V30.4H32v3.2H30.4V32H28.8v1.6H27.2V32H25.6v1.6H24V30.4H22.4v3.2H19.2V28.8H46.4Z" transform="translate(0)"/><path d="M1.37,25.83a.84.84,0,0,0-.88-.17A.81.81,0,0,0,0,26.4V47.2a.81.81,0,0,0,.23.57A.81.81,0,0,0,.8,48H21.6a.81.81,0,0,0,.74-.49.84.84,0,0,0-.17-.88ZM1.6,46.4V28.33L19.67,46.4Z" transform="translate(0)"/><path d="M4,44.8h9.87a.79.79,0,0,0,.74-.49.8.8,0,0,0-.17-.88L4.57,33.56a.8.8,0,0,0-.88-.17.78.78,0,0,0-.49.73V44a.79.79,0,0,0,.8.8Zm.8-8.74,7.14,7.14H4.8Z" transform="translate(0)"/><path d="M10.4,25.6h4.8v1.6H10.4Z" transform="translate(0)"/><path d="M10.4,28.8h4.8v1.6H10.4Z" transform="translate(0)"/><path d="M10.4,32h4.8v1.6H10.4Z" transform="translate(0)"/><path d="M34.51,16.79A.8.8,0,0,0,35.2,16V12.8a.79.79,0,0,0-.69-.79l-2.14-.31a10,10,0,0,0-.54-1.31l1.29-1.73h0a.81.81,0,0,0-.07-1L30.79,5.35a.82.82,0,0,0-1.05-.08L28,6.57A10,10,0,0,0,26.7,6l-.31-2.14a.8.8,0,0,0-.79-.69H22.4a.79.79,0,0,0-.79.69L21.3,6A10,10,0,0,0,20,6.57l-1.73-1.3a.82.82,0,0,0-1.05.08L15,7.61a.82.82,0,0,0-.08,1l1.3,1.73h0a10,10,0,0,0-.54,1.31L13.49,12a.79.79,0,0,0-.69.79V16a.8.8,0,0,0,.69.79l2.14.31a10,10,0,0,0,.54,1.31l-1.3,1.73h0A.82.82,0,0,0,15,21.19l2.26,2.26a.81.81,0,0,0,1.05.07L20,22.22a8.85,8.85,0,0,0,1.31.55l.31,2.14a.79.79,0,0,0,.79.69h3.2a.8.8,0,0,0,.79-.69l.31-2.14A8.85,8.85,0,0,0,28,22.22l1.73,1.3a.81.81,0,0,0,1.05-.07l2.26-2.26a.81.81,0,0,0,.07-1.05l-1.29-1.73h0a10,10,0,0,0,.54-1.31Zm-2.88-1.2h0a.79.79,0,0,0-.66.59,7.25,7.25,0,0,1-.78,1.89.77.77,0,0,0,0,.88l1.19,1.6-1.28,1.28-1.59-1.2a.8.8,0,0,0-.89,0,7.19,7.19,0,0,1-1.88.78.8.8,0,0,0-.6.66l-.28,2H23.09l-.28-2a.79.79,0,0,0-.59-.66,7.25,7.25,0,0,1-1.89-.78.8.8,0,0,0-.89,0l-1.59,1.2-1.28-1.28L17.77,19h0a.8.8,0,0,0,0-.89A7.11,7.11,0,0,1,17,16.18a.79.79,0,0,0-.66-.59l-2-.28V13.49l2-.28a.79.79,0,0,0,.66-.59,7.11,7.11,0,0,1,.78-1.89.78.78,0,0,0,0-.89L16.57,8.25,17.85,7l1.59,1.2h0a.8.8,0,0,0,.89,0,7.11,7.11,0,0,1,1.89-.78.79.79,0,0,0,.59-.66l.28-2h1.82l.28,2a.79.79,0,0,0,.59.66,7.25,7.25,0,0,1,1.89.78.78.78,0,0,0,.89-.05L30.15,7l1.28,1.28-1.2,1.59h0a.8.8,0,0,0,0,.89A7.11,7.11,0,0,1,31,12.62a.79.79,0,0,0,.66.59l2,.28v1.82Z" transform="translate(0)"/><path d="M24,9.6A4.81,4.81,0,1,0,27.39,11,4.8,4.8,0,0,0,24,9.6Zm0,8a3.21,3.21,0,1,1,2.26-.94A3.19,3.19,0,0,1,24,17.6Z" transform="translate(0)"/></svg>