<svg id="Layer_1" data-name="Layer 1" xmlns="http://www.w3.org/2000/svg" viewBox="0 0 48 48"><path d="M26.08,0a1.1,1.1,0,0,0-1,1.09V3.5a12.25,12.25,0,0,0-1.93.66L21.49,2.49a1.09,1.09,0,0,0-1.53,0L16.14,6.31a1.08,1.08,0,0,0-.08,1.46L17.8,10a9.47,9.47,0,0,0-.6,1.49H14.73a1.08,1.08,0,0,0-1.09,1.09V18h0a1.09,1.09,0,0,0,1.09,1.09h2.42A12.41,12.41,0,0,0,17.81,21l-1.67,1.67a1.12,1.12,0,0,0-.32.78,1.1,1.1,0,0,0,.32.77L20,28a1.09,1.09,0,0,0,1.53,0l1.67-1.67a12.25,12.25,0,0,0,1.93.66v2.42h0a1.09,1.09,0,0,0,1.09,1.1h5.46a1.09,1.09,0,0,0,1.09-1.1V27a12.51,12.51,0,0,0,1.92-.66L36.32,28a1.1,1.1,0,0,0,1.54,0l3.82-3.82h0a1.1,1.1,0,0,0,.32-.77,1.12,1.12,0,0,0-.32-.78L40,21a13.57,13.57,0,0,0,.66-1.91h2.42A1.09,1.09,0,0,0,44.18,18V12.55h0a1.09,1.09,0,0,0-1.09-1.09H40.62A10.2,10.2,0,0,0,40,10l1.74-2.19h0a1.08,1.08,0,0,0-.08-1.46L37.86,2.49h0a1.1,1.1,0,0,0-1.54,0L34.65,4.16a12.51,12.51,0,0,0-1.92-.66V1.09A1.09,1.09,0,0,0,31.64,0H26.08Zm1.19,2.18h3.28V4.36h0a1.08,1.08,0,0,0,.83,1.06,12.34,12.34,0,0,1,3,1h0a1.11,1.11,0,0,0,1.33-.16l1.41-1.41,2.35,2.35-1.57,2h0a1.08,1.08,0,0,0-.08,1.24,7.63,7.63,0,0,1,1,2.42h0a1.09,1.09,0,0,0,1.06.84H42v3.27H39.82a1.1,1.1,0,0,0-1.06.82,12.86,12.86,0,0,1-1,3h0A1.1,1.1,0,0,0,38,22l1.41,1.41-2.28,2.27-1.41-1.41a1.09,1.09,0,0,0-1.33-.16,12.34,12.34,0,0,1-3,1h0a1.1,1.1,0,0,0-.84,1.07v2.18H27.27V26.18h0a1.08,1.08,0,0,0-.83-1.07,12.19,12.19,0,0,1-3-1,1.09,1.09,0,0,0-1.33.16l-1.41,1.41-2.29-2.27L19.86,22h0A1.1,1.1,0,0,0,20,20.71a12,12,0,0,1-1-3h0A1.1,1.1,0,0,0,18,16.91H15.82V13.64H18a1.1,1.1,0,0,0,1.06-.84,7.4,7.4,0,0,1,1-2.42h0a1.09,1.09,0,0,0-.09-1.24l-1.57-2,2.36-2.35,1.41,1.41h0a1.1,1.1,0,0,0,1.33.16,12.19,12.19,0,0,1,3-1,1.08,1.08,0,0,0,.83-1.06Zm1.64,6.55a6.55,6.55,0,1,0,6.54,6.54A6.56,6.56,0,0,0,28.91,8.73Zm0,2.18a4.37,4.37,0,1,1-4.36,4.36A4.34,4.34,0,0,1,28.91,10.91ZM1,25.64a1.09,1.09,0,0,0-1,1.09V42a1.09,1.09,0,0,0,1.09,1.09H8.18A1.1,1.1,0,0,0,9,42.77C13.08,45.6,16.42,48,24,48c4.48,0,9.72-2.28,13.94-4.5a79.62,79.62,0,0,0,7.4-4.41l0,0a7.17,7.17,0,0,0,2-1.69A4.14,4.14,0,0,0,48,34.91a2.92,2.92,0,0,0-.85-2,4,4,0,0,0-1.62-.92,8.33,8.33,0,0,0-2.44-.3,9.47,9.47,0,0,0-3.94,1.19,14.28,14.28,0,0,0-1.26.68,3.8,3.8,0,0,0-3.53-2.42h-10a13.16,13.16,0,0,0-6.52-2.64,54,54,0,0,0-8.58-.61V26.73a1.09,1.09,0,0,0-1.09-1.09H1Zm1.19,2.18H7.09V40.91H2.18ZM9.27,30a52.91,52.91,0,0,1,8.2.57c2.64.45,4.66,1.25,5.76,2.35h0a1.12,1.12,0,0,0,.77.32H34.36a1.64,1.64,0,1,1,0,3.28H18.55a1.05,1.05,0,0,0-.79.31,1.1,1.1,0,0,0,.79,1.87H34.36A3.79,3.79,0,0,0,38,36a1.23,1.23,0,0,0,.26-.12s.83-.52,1.89-1a9.4,9.4,0,0,1,3-1,6.65,6.65,0,0,1,1.79.22,2,2,0,0,1,.75.37.57.57,0,0,1,.19.5,1.73,1.73,0,0,1-.27,1.19,6.16,6.16,0,0,1-1.44,1.16h0v0a74.23,74.23,0,0,1-7.18,4.29C32.83,43.72,27.7,45.82,24,45.82c-7.65,0-10.1-2.35-14.73-5.49Z" transform="translate(0 0)"/></svg>