<?xml version="1.0" encoding="UTF-8"?>
<svg xmlns="http://www.w3.org/2000/svg" xmlns:xlink="http://www.w3.org/1999/xlink" width="33px" height="40px" viewBox="0 0 33 40" version="1.1"><g id="surface1"><path style=" stroke:none;fill-rule:nonzero;fill:rgb(0%,0%,0%);fill-opacity:1;" d="M 27.082031 5.667969 C 27.171875 5.71875 27.28125 5.738281 27.386719 5.726562 C 27.605469 5.722656 27.808594 5.613281 27.925781 5.433594 L 29.660156 2.300781 C 29.796875 2.011719 29.679688 1.671875 29.402344 1.515625 C 29.121094 1.363281 28.765625 1.445312 28.585938 1.707031 L 26.84375 4.839844 C 26.753906 4.980469 26.726562 5.152344 26.769531 5.3125 C 26.816406 5.472656 26.929688 5.601562 27.082031 5.675781 Z M 27.082031 5.667969 "/><path style=" stroke:none;fill-rule:nonzero;fill:rgb(0%,0%,0%);fill-opacity:1;" d="M 18.144531 5.964844 C 18.253906 6.125 18.4375 6.210938 18.628906 6.199219 C 18.753906 6.1875 18.875 6.148438 18.984375 6.082031 C 19.132812 6.003906 19.230469 5.859375 19.253906 5.695312 C 19.277344 5.53125 19.222656 5.367188 19.101562 5.25 L 17.0625 2.300781 C 16.980469 2.15625 16.832031 2.0625 16.667969 2.039062 C 16.503906 2.015625 16.335938 2.070312 16.214844 2.183594 C 16.070312 2.261719 15.96875 2.40625 15.945312 2.570312 C 15.921875 2.734375 15.980469 2.898438 16.097656 3.015625 Z M 18.144531 5.964844 "/><path style=" stroke:none;fill-rule:nonzero;fill:rgb(0%,0%,0%);fill-opacity:1;" d="M 22.460938 5.191406 C 22.621094 5.203125 22.78125 5.148438 22.898438 5.035156 C 23.011719 4.921875 23.070312 4.765625 23.0625 4.609375 L 23.0625 0.550781 C 23.070312 0.390625 23.011719 0.234375 22.898438 0.125 C 22.78125 0.0117188 22.621094 -0.046875 22.460938 -0.0351562 C 22.300781 -0.0429688 22.144531 0.015625 22.027344 0.125 C 21.914062 0.238281 21.851562 0.390625 21.859375 0.550781 L 21.859375 4.609375 C 21.851562 4.765625 21.914062 4.921875 22.027344 5.03125 C 22.144531 5.144531 22.300781 5.203125 22.460938 5.191406 Z M 22.460938 5.191406 "/><path style=" stroke:none;fill-rule:nonzero;fill:rgb(0%,0%,0%);fill-opacity:1;" d="M 30.085938 11.992188 C 29.289062 11.980469 28.527344 12.300781 27.988281 12.875 L 22.910156 17.875 C 22.4375 18.105469 21.882812 18.105469 21.410156 17.875 L 6.6875 3.425781 C 6.128906 2.871094 5.375 2.550781 4.582031 2.535156 C 3.785156 2.523438 3.023438 2.847656 2.484375 3.425781 C 1.316406 4.578125 1.316406 6.441406 2.484375 7.589844 L 7.339844 12.375 C 6.699219 12.46875 6.105469 12.757812 5.648438 13.207031 C 4.796875 14.042969 4.566406 15.308594 5.0625 16.382812 C 4.34375 16.425781 3.660156 16.722656 3.144531 17.214844 C 2.578125 17.75 2.253906 18.488281 2.246094 19.257812 C 2.226562 19.816406 2.371094 20.371094 2.660156 20.851562 C 2.023438 20.980469 1.433594 21.289062 0.96875 21.742188 C -0.132812 22.738281 -0.257812 24.40625 0.679688 25.550781 L 8.90625 33.640625 C 9.132812 33.816406 9.375 33.976562 9.625 34.117188 C 9.746094 34.429688 9.929688 34.710938 10.167969 34.949219 C 10.234375 35.023438 10.316406 35.082031 10.402344 35.125 L 14.125 38.792969 C 14.96875 39.558594 16.074219 39.992188 17.222656 40 C 18.519531 40.019531 19.757812 39.476562 20.609375 38.515625 L 27.632812 31.609375 C 28.578125 30.75 29.117188 29.542969 29.128906 28.273438 C 29.128906 27.324219 28.054688 23.839844 27.265625 21.648438 L 32.074219 16.925781 C 32.628906 16.375 32.949219 15.632812 32.96875 14.859375 C 32.976562 14.078125 32.652344 13.328125 32.074219 12.792969 C 31.546875 12.28125 30.832031 12.003906 30.09375 12.023438 Z M 6.503906 13.941406 C 7.214844 13.28125 8.328125 13.28125 9.042969 13.941406 L 18.804688 23.574219 C 19.480469 24.277344 19.480469 25.375 18.804688 26.074219 C 18.25 26.628906 17.378906 26.730469 16.707031 26.316406 C 16.582031 26.257812 16.460938 26.132812 16.34375 26.074219 L 6.6875 16.542969 C 6.6875 16.507812 6.664062 16.484375 6.628906 16.484375 C 6.234375 16.183594 5.992188 15.730469 5.96875 15.242188 C 5.941406 14.75 6.140625 14.277344 6.503906 13.941406 Z M 3.921875 18.050781 C 4.570312 17.398438 5.617188 17.347656 6.324219 17.933594 L 15.53125 26.941406 C 15.828125 27.230469 15.972656 27.640625 15.921875 28.050781 C 15.929688 28.519531 15.734375 28.96875 15.386719 29.292969 C 14.886719 29.789062 14.132812 29.953125 13.464844 29.707031 C 13.285156 29.648438 13.121094 29.546875 12.984375 29.417969 L 3.804688 20.382812 C 3.496094 20.089844 3.34375 19.675781 3.390625 19.257812 C 3.421875 18.808594 3.609375 18.382812 3.921875 18.050781 Z M 1.644531 24.808594 C 1.644531 24.75 1.585938 24.75 1.527344 24.691406 C 1.269531 24.363281 1.15625 23.949219 1.214844 23.539062 C 1.269531 23.128906 1.488281 22.757812 1.824219 22.507812 C 2.191406 22.148438 2.683594 21.9375 3.203125 21.917969 C 3.53125 21.917969 3.847656 22.019531 4.109375 22.214844 C 4.105469 22.234375 4.109375 22.25 4.121094 22.261719 C 4.132812 22.277344 4.148438 22.285156 4.167969 22.285156 L 12.382812 30.375 C 12.632812 30.648438 12.765625 31.007812 12.746094 31.375 C 12.695312 31.824219 12.484375 32.242188 12.148438 32.550781 C 11.738281 32.964844 11.164062 33.179688 10.582031 33.140625 C 10.5 33.144531 10.417969 33.125 10.34375 33.082031 C 10.152344 33.042969 9.984375 32.941406 9.863281 32.792969 Z M 31.261719 16.183594 L 26.183594 21.183594 C 26.007812 21.328125 25.957031 21.574219 26.066406 21.773438 C 26.871094 23.929688 27.511719 26.140625 27.988281 28.390625 C 27.980469 29.347656 27.566406 30.253906 26.84375 30.890625 L 19.820312 37.800781 C 19.179688 38.515625 18.253906 38.925781 17.28125 38.925781 C 16.390625 38.917969 15.53125 38.578125 14.878906 37.976562 C 14.820312 37.917969 14.820312 37.917969 14.761719 37.917969 L 11.375 34.582031 C 11.375 34.523438 11.316406 34.523438 11.257812 34.464844 C 11.417969 34.417969 11.578125 34.359375 11.730469 34.292969 C 11.777344 34.285156 11.820312 34.265625 11.851562 34.234375 L 12.214844 34.050781 C 12.257812 34.042969 12.300781 34.023438 12.332031 33.992188 C 12.484375 33.890625 12.628906 33.773438 12.753906 33.640625 C 13.292969 33.121094 13.632812 32.429688 13.710938 31.691406 L 13.710938 31.132812 L 14.015625 31.132812 C 14.175781 31.148438 14.339844 31.125 14.492188 31.074219 L 14.683594 31.074219 C 14.804688 31.015625 14.980469 31.015625 15.101562 30.957031 C 15.148438 30.953125 15.191406 30.929688 15.226562 30.898438 C 15.378906 30.84375 15.519531 30.761719 15.640625 30.660156 L 15.699219 30.601562 C 15.820312 30.484375 16.003906 30.367188 16.125 30.25 C 16.679688 29.722656 17.003906 29 17.019531 28.242188 L 17.019531 27.765625 L 17.445312 27.765625 C 17.605469 27.777344 17.769531 27.757812 17.925781 27.707031 L 18.070312 27.707031 C 18.1875 27.648438 18.367188 27.648438 18.484375 27.589844 C 18.601562 27.535156 18.609375 27.535156 18.671875 27.535156 L 19.027344 27.351562 C 19.085938 27.351562 19.085938 27.292969 19.144531 27.292969 C 19.203125 27.292969 19.449219 27.117188 19.566406 27 C 20.734375 25.847656 20.734375 23.984375 19.566406 22.832031 L 3.328125 6.910156 C 3.328125 6.851562 3.269531 6.851562 3.203125 6.792969 C 2.851562 6.46875 2.65625 6.015625 2.65625 5.542969 C 2.65625 5.070312 2.851562 4.617188 3.203125 4.292969 C 3.523438 3.957031 3.96875 3.769531 4.433594 3.769531 C 4.898438 3.769531 5.34375 3.957031 5.664062 4.292969 C 5.664062 4.351562 5.722656 4.351562 5.785156 4.410156 L 12.265625 10.792969 C 12.265625 10.851562 12.324219 10.851562 12.382812 10.910156 L 20.550781 18.949219 C 20.609375 19.007812 20.667969 19.007812 20.667969 19.066406 C 21.539062 19.484375 22.554688 19.484375 23.425781 19.066406 C 23.488281 19.0625 23.539062 19.011719 23.542969 18.949219 L 28.707031 13.867188 C 29.417969 13.207031 30.53125 13.207031 31.246094 13.867188 C 31.589844 14.191406 31.785156 14.640625 31.785156 15.109375 C 31.785156 15.511719 31.609375 15.898438 31.304688 16.167969 Z M 31.261719 16.183594 "/></g></svg>