<svg version="1.0" xmlns="http://www.w3.org/2000/svg" width="300.000000pt" height="445.000000pt"
     viewBox="0 0 300.000000 445.000000" preserveAspectRatio="xMidYMid meet">
    <g transform="translate(0.000000,445.000000) scale(0.100000,-0.100000)"
       fill="#000000" stroke="none">
        <path d="M12 4310 c-1 -80 -2 -1074 -2 -2209 0 -1649 2 -2066 12 -2073 14 -8
-17 -8 1741 -8 670 0 1223 2 1228 5 5 4 8 872 7 2218 l-3 2212 -2 -2207 -3
-2208 -1485 0 -1485 0 -3 2207 c-1 1215 -3 2143 -5 2063z"/>
        <path d="M60 2245 l0 -2165 1445 0 1445 0 0 2165 0 2165 -1445 0 -1445 0 0
-2165z m2880 1970 l0 -185 -1430 0 -1430 0 0 185 0 185 1430 0 1430 0 0 -185z
m0 -2165 l0 -1960 -1435 0 -1435 0 0 1960 0 1960 1435 0 1435 0 0 -1960z"/>
        <path d="M1060 4275 c-7 -8 -10 -24 -9 -37 2 -13 0 -29 -5 -36 -15 -24 14 -42
68 -42 60 0 81 0 119 0 21 0 30 5 35 22 5 21 5 21 13 1 7 -19 16 -21 106 -22
168 -3 158 -5 165 34 9 45 -15 63 -80 63 -33 0 -69 6 -81 13 -18 12 -25 12
-43 0 -26 -16 -197 -18 -207 -3 -10 17 -69 21 -81 7z m78 -24 c3 -10 -3 -12
-29 -6 l-34 6 33 -20 c17 -11 32 -24 32 -28 -1 -37 -72 -45 -79 -8 -3 17 -1
17 12 6 9 -7 24 -11 34 -9 14 3 11 8 -14 21 -32 17 -41 36 -26 51 12 12 66 2
71 -13z m242 -31 c0 -27 -5 -50 -10 -50 -6 0 -10 22 -9 50 1 28 6 50 11 50 4
0 8 -22 8 -50z m-171 12 c6 -10 7 -29 4 -41 -8 -31 -57 -26 -61 7 -7 44 38 70
57 34z m98 -10 l6 -27 10 28 c5 15 13 27 18 27 12 0 11 -7 -3 -47 -15 -41 -33
-42 -46 -3 -13 36 -42 31 -42 -6 0 -13 -4 -24 -10 -24 -5 0 -10 17 -10 38 0
37 1 39 35 40 30 1 36 -2 42 -26z m137 22 c23 -9 20 -26 -4 -19 -16 5 -20 2
-20 -15 0 -17 4 -20 21 -15 16 5 20 3 17 -6 -3 -8 -16 -14 -29 -14 -28 0 -39
36 -19 61 14 16 13 16 34 8z m85 -8 c17 -20 7 -61 -16 -64 -30 -5 -48 23 -35
53 13 28 34 32 51 11z"/>
        <path d="M1170 4220 c0 -5 5 -10 10 -10 6 0 10 5 10 10 0 6 -4 10 -10 10 -5 0
-10 -4 -10 -10z"/>
        <path d="M1175 4190 c4 -6 11 -8 16 -5 14 9 11 15 -7 15 -8 0 -12 -5 -9 -10z"/>
        <path d="M1500 4220 c0 -5 5 -10 10 -10 6 0 10 5 10 10 0 6 -4 10 -10 10 -5 0
-10 -4 -10 -10z"/>
        <path d="M1495 4190 c4 -6 11 -8 16 -5 14 9 11 15 -7 15 -8 0 -12 -5 -9 -10z"/>
        <path d="M1579 4267 c-3 -23 1 -82 5 -93 4 -10 208 -19 335 -15 33 1 51 19 51
51 0 39 -29 48 -158 48 -62 0 -118 4 -125 9 -19 15 -107 15 -108 0z m41 -4 c0
-5 9 -19 20 -33 l20 -25 -6 33 c-5 26 -3 32 10 32 14 0 16 -9 14 -50 -3 -58
-20 -65 -43 -20 -9 17 -18 30 -21 30 -4 0 -4 -13 -2 -30 3 -20 0 -30 -9 -30
-9 0 -13 15 -13 50 0 38 4 50 15 50 8 0 15 -3 15 -7z m131 -55 c6 -38 5 -38
-28 -38 -26 0 -33 4 -33 20 0 11 6 20 14 20 8 0 18 5 22 11 4 8 0 9 -15 4 -11
-3 -21 -2 -21 3 0 15 13 23 34 20 15 -2 22 -13 27 -40z m117 29 c18 -12 16
-67 -4 -67 -10 0 -14 7 -12 23 1 12 -2 22 -7 22 -6 0 -10 -10 -10 -22 1 -13
-5 -23 -12 -23 -8 0 -13 12 -13 30 0 17 -4 30 -10 30 -5 0 -10 -13 -10 -30 0
-16 -4 -30 -10 -30 -5 0 -10 17 -10 38 l0 37 43 0 c23 0 48 -4 55 -8z m81 -5
c6 -10 7 -29 4 -41 -8 -31 -57 -26 -61 7 -7 44 38 70 57 34z"/>
        <path d="M1710 4189 c0 -5 5 -7 10 -4 6 3 10 8 10 11 0 2 -4 4 -10 4 -5 0 -10
-5 -10 -11z"/>
        <path d="M1910 4220 c0 -5 5 -10 10 -10 6 0 10 5 10 10 0 6 -4 10 -10 10 -5 0
-10 -4 -10 -10z"/>
        <path d="M1915 4190 c4 -6 11 -8 16 -5 14 9 11 15 -7 15 -8 0 -12 -5 -9 -10z"/>
        <path d="M600 3758 c-7 -42 -6 -108 1 -108 5 0 9 25 9 55 0 30 -2 55 -5 55 -3
0 -5 -1 -5 -2z"/>
        <path d="M421 3713 c-7 -21 -15 -44 -17 -50 -3 -7 -1 -13 5 -13 6 0 11 7 11
15 0 21 46 19 54 -1 4 -9 9 -14 12 -11 9 9 -29 97 -42 97 -6 0 -16 -17 -23
-37z m39 -15 c0 -4 -6 -5 -14 -2 -8 3 -12 12 -9 21 5 12 7 12 14 1 5 -7 9 -16
9 -20z"/>
        <path d="M500 3700 c0 -27 5 -50 10 -50 6 0 10 9 10 20 0 13 7 20 19 20 24 0
45 25 37 45 -3 9 -18 15 -41 15 l-35 0 0 -50z m60 25 c0 -8 -9 -15 -20 -15
-11 0 -20 7 -20 15 0 8 9 15 20 15 11 0 20 -7 20 -15z"/>
        <path d="M2140 3700 c0 -48 1 -50 28 -50 34 0 52 16 52 46 0 42 -11 54 -46 54
l-34 0 0 -50z m60 25 c18 -22 3 -55 -26 -55 -21 0 -24 5 -24 35 0 28 4 35 19
35 10 0 24 -7 31 -15z"/>
        <path d="M2318 3738 c-7 -18 3 -88 11 -88 8 0 7 88 -1 96 -3 3 -8 -1 -10 -8z"/>
        <path d="M637 3724 c-13 -14 -7 -33 13 -39 11 -4 18 -11 14 -16 -3 -6 -12 -5
-22 3 -13 11 -14 11 -10 -2 6 -18 36 -26 50 -12 6 6 7 16 2 24 -5 7 -9 20 -9
28 0 16 -26 25 -38 14z m28 -14 c3 -5 -1 -10 -10 -10 -9 0 -13 5 -10 10 3 6 8
10 10 10 2 0 7 -4 10 -10z"/>
        <path d="M2245 3719 c-4 -6 -4 -13 -1 -16 3 -3 1 -12 -5 -19 -16 -20 -1 -34
32 -32 30 2 38 24 23 62 -7 18 -39 21 -49 5z m30 -9 c3 -5 -1 -10 -10 -10 -9
0 -13 5 -10 10 3 6 8 10 10 10 2 0 7 -4 10 -10z m-3 -42 c-6 -6 -15 -8 -19 -4
-4 4 -1 11 7 16 19 12 27 3 12 -12z"/>
        <path d="M2360 3720 c-8 -5 -11 -12 -7 -16 3 -4 13 -1 21 5 8 7 17 8 20 3 3
-6 -6 -13 -20 -16 -38 -10 -28 -41 14 -43 30 -1 32 1 26 25 -10 46 -13 52 -26
52 -7 0 -20 -4 -28 -10z m40 -39 c0 -14 -18 -23 -31 -15 -8 4 -7 9 2 15 18 11
29 11 29 0z"/>
        <path d="M232 3465 c1 -37 2 -37 5 -7 l4 32 79 0 c65 0 81 -3 89 -17 9 -16 10
-15 11 7 0 25 0 25 -95 25 l-95 0 2 -40z"/>
        <path d="M2426 3500 c-1 -3 1 -48 4 -100 l5 -95 65 -3 c112 -5 110 -7 110 106
l0 97 -91 0 c-50 0 -92 -2 -93 -5z m172 -97 l2 -81 -70 -4 c-39 -2 -75 -1 -80
0 -11 4 -14 130 -4 156 5 12 21 15 77 13 l72 -2 3 -82z"/>
        <path d="M406 3393 c-4 -9 -2 -21 4 -27 7 -7 10 -2 10 17 0 31 -5 34 -14 10z"/>
        <path d="M231 3334 c0 -11 3 -14 6 -6 3 7 2 16 -1 19 -3 4 -6 -2 -5 -13z"/>
        <path d="M394 3320 c-5 -5 -45 -11 -89 -13 -75 -3 -74 -3 14 -3 66 1 96 5 99
14 4 14 -10 16 -24 2z"/>
        <path d="M230 2471 c0 -28 5 -51 10 -51 6 0 10 9 10 19 0 14 8 21 28 23 21 2
27 8 27 28 0 22 -5 25 -37 28 l-38 3 0 -50z m65 30 c3 -6 -3 -15 -14 -20 -27
-15 -31 -14 -31 9 0 21 33 29 45 11z"/>
        <path d="M400 2470 c0 -46 2 -50 24 -50 35 0 52 24 37 56 -7 17 -17 24 -26 20
-9 -3 -15 0 -15 9 0 8 -4 15 -10 15 -5 0 -10 -22 -10 -50z m48 -12 c-5 -32
-28 -35 -28 -4 0 17 5 26 16 26 10 0 14 -7 12 -22z"/>
        <path d="M893 2504 c-7 -18 20 -44 44 -44 18 0 17 -17 -2 -24 -8 -3 -22 2 -30
11 -20 19 -33 9 -15 -12 19 -23 64 -15 68 11 2 16 -4 24 -28 33 -17 6 -29 15
-25 21 9 14 32 13 38 -2 2 -7 8 -10 12 -6 12 12 -5 28 -31 28 -14 0 -27 -7
-31 -16z"/>
        <path d="M1058 2470 c4 -45 6 -50 28 -50 17 0 25 7 30 25 7 29 -12 59 -33 51
-7 -3 -13 1 -13 9 0 8 -3 15 -7 15 -5 0 -6 -22 -5 -50z m45 -3 c7 -19 -8 -41
-22 -33 -16 10 -14 46 3 46 8 0 16 -6 19 -13z"/>
        <path d="M2030 2470 l0 -50 41 0 c26 0 38 4 33 11 -3 6 -17 8 -30 5 -20 -5
-24 -3 -24 15 0 17 4 20 24 15 14 -3 28 -2 31 4 4 6 -6 10 -24 10 -43 0 -41
27 2 33 28 3 26 4 -10 5 l-43 2 0 -50z"/>
        <path d="M2192 2473 c4 -55 24 -70 22 -15 -3 58 -3 62 -15 62 -6 0 -9 -19 -7
-47z"/>
        <path d="M2508 2483 c6 -65 10 -70 11 -15 0 28 -3 52 -7 52 -4 0 -6 -17 -4
-37z"/>
        <path d="M326 2487 c-4 -9 -5 -28 -2 -42 5 -19 13 -25 35 -25 26 0 28 2 26 38
-3 50 -6 54 -14 13 -9 -49 -29 -51 -33 -4 -3 29 -6 34 -12 20z"/>
        <path d="M983 2465 c2 -36 5 -40 30 -41 25 -1 27 2 27 37 0 22 -4 39 -10 39
-5 0 -10 -16 -10 -36 0 -46 -22 -41 -32 7 -6 34 -6 34 -5 -6z"/>
        <path d="M2120 2493 c0 -5 5 -14 12 -21 9 -9 9 -15 0 -24 -18 -18 -15 -33 4
-17 13 10 17 10 24 -1 5 -8 12 -11 16 -7 4 3 1 13 -6 22 -10 12 -10 18 0 30 7
9 10 19 6 22 -4 4 -11 1 -16 -7 -7 -11 -11 -11 -24 -1 -9 8 -16 9 -16 4z"/>
        <path d="M2242 2491 c-8 -5 -12 -21 -10 -37 2 -23 8 -29 28 -29 20 0 26 6 28
29 3 25 -10 46 -28 46 -3 0 -11 -4 -18 -9z m38 -15 c0 -9 -30 -14 -35 -6 -4 6
3 10 14 10 12 0 21 -2 21 -4z m-8 -38 c-9 -9 -15 -9 -24 0 -9 9 -7 12 12 12
19 0 21 -3 12 -12z"/>
        <path d="M2312 2456 c1 -37 2 -38 5 -8 2 17 8 32 14 32 5 0 9 4 9 8 0 5 -7 9
-15 9 -11 0 -15 -11 -13 -41z"/>
        <path d="M2368 2493 c-13 -3 -18 -14 -18 -39 0 -19 5 -34 10 -34 6 0 10 14 10
30 0 42 27 40 33 -2 4 -28 4 -26 3 6 -1 40 -8 47 -38 39z"/>
        <path d="M2437 2494 c-14 -14 -7 -22 15 -16 14 3 19 2 14 -6 -4 -7 -14 -12
-22 -12 -8 0 -14 -9 -14 -20 0 -16 6 -20 30 -18 29 2 31 5 28 38 -2 26 -8 36
-23 38 -12 2 -24 0 -28 -4z m33 -54 c0 -5 -7 -10 -15 -10 -8 0 -15 5 -15 10 0
6 7 10 15 10 8 0 15 -4 15 -10z"/>
        <path d="M253 2161 c2 -115 -5 -108 115 -103 l72 4 0 99 0 99 -94 0 -95 0 2
-99z m155 70 c8 -1 12 -23 12 -75 l0 -74 -59 -7 c-64 -7 -86 -1 -77 21 3 7 1
16 -4 19 -6 3 -9 30 -7 58 l3 52 39 5 c22 3 49 4 60 3 11 -1 26 -2 33 -2z"/>
        <path d="M902 2161 c1 -116 -4 -111 123 -103 l75 5 0 98 0 99 -100 0 -100 0 2
-99z m169 70 c3 0 7 -35 8 -76 l2 -75 -43 0 c-24 0 -52 -3 -63 -5 -38 -10 -50
9 -49 79 1 35 4 68 7 73 5 8 105 10 138 4z"/>
        <path d="M2378 2164 c-3 -82 -1 -97 14 -105 19 -10 101 -12 147 -3 l31 7 0 98
0 99 -94 0 -95 0 -3 -96z m170 -5 l2 -66 -43 -17 c-27 -10 -55 -14 -75 -10
l-32 7 0 79 0 79 73 -3 72 -3 3 -66z"/>
        <path d="M180 1025 c-16 -19 3 -45 31 -45 11 0 19 -7 19 -15 0 -18 -36 -20
-43 -2 -2 6 -8 9 -12 5 -11 -10 14 -38 34 -38 20 0 41 19 41 38 0 7 -13 18
-30 23 -40 14 -39 33 1 25 27 -5 30 -4 19 9 -16 19 -44 19 -60 0z"/>
        <path d="M425 1030 c-3 -5 1 -10 10 -10 9 0 13 5 10 10 -3 6 -8 10 -10 10 -2
0 -7 -4 -10 -10z"/>
        <path d="M651 999 c-7 -23 -15 -47 -18 -55 -3 -8 -1 -14 4 -14 6 0 15 18 22
41 7 23 15 47 18 55 3 8 1 14 -4 14 -6 0 -15 -18 -22 -41z"/>
        <path d="M720 985 c0 -54 0 -55 30 -55 17 0 30 5 30 10 0 6 -9 10 -20 10 -17
0 -20 7 -20 45 0 25 -4 45 -10 45 -5 0 -10 -25 -10 -55z"/>
        <path d="M950 1030 c0 -5 5 -10 11 -10 5 0 7 5 4 10 -3 6 -8 10 -11 10 -2 0
-4 -4 -4 -10z"/>
        <path d="M2222 1000 c-3 -64 27 -90 62 -54 17 17 22 94 7 94 -6 0 -11 -19 -13
-42 -2 -35 -7 -43 -23 -43 -16 0 -21 9 -26 45 l-6 45 -1 -45z"/>
        <path d="M2320 985 c0 -32 3 -55 6 -52 4 4 7 27 7 52 0 25 -3 48 -7 52 -3 3
-6 -20 -6 -52z"/>
        <path d="M268 1020 c-6 -18 3 -90 11 -90 4 0 6 21 5 46 -3 47 -9 64 -16 44z"/>
        <path d="M310 995 c-26 -31 13 -82 44 -56 19 16 21 42 4 59 -16 16 -33 15 -48
-3z m40 -26 c0 -20 -24 -26 -35 -9 -8 13 14 42 26 34 5 -3 9 -14 9 -25z"/>
        <path d="M380 970 c0 -22 5 -40 10 -40 6 0 10 14 10 30 0 17 5 30 10 30 6 0
10 5 10 10 0 6 -9 10 -20 10 -17 0 -20 -7 -20 -40z"/>
        <path d="M433 970 c0 -25 2 -35 4 -22 2 12 2 32 0 45 -2 12 -4 2 -4 -23z"/>
        <path d="M467 1004 c-11 -11 -8 -62 3 -69 13 -8 50 4 50 16 0 5 -11 7 -25 3
-15 -4 -25 -2 -25 5 0 6 12 11 26 11 19 0 25 5 22 18 -3 17 -38 29 -51 16z
m38 -14 c3 -5 -3 -10 -15 -10 -12 0 -18 5 -15 10 3 6 10 10 15 10 5 0 12 -4
15 -10z"/>
        <path d="M537 1003 c-13 -12 -7 -22 21 -38 l27 -16 -28 6 c-21 4 -28 2 -25 -7
3 -7 15 -13 29 -13 31 0 39 34 10 42 -12 3 -21 10 -21 15 0 5 10 6 21 3 15 -5
19 -4 15 4 -8 12 -39 15 -49 4z"/>
        <path d="M800 995 c-16 -19 1 -65 24 -65 39 0 49 72 10 78 -11 2 -27 -4 -34
-13z m46 -34 c-11 -18 -36 -13 -36 7 0 10 3 22 7 26 10 10 37 -20 29 -33z"/>
        <path d="M874 986 c-7 -31 1 -46 27 -46 10 0 19 -5 19 -11 0 -7 -10 -9 -27 -5
-26 6 -27 5 -9 -9 28 -22 46 -2 46 51 0 40 -2 44 -25 44 -18 0 -26 -7 -31 -24z
m44 -14 c2 -14 -2 -22 -12 -22 -19 0 -28 14 -20 35 9 21 28 14 32 -13z"/>
        <path d="M953 970 c0 -25 2 -35 4 -22 2 12 2 32 0 45 -2 12 -4 2 -4 -23z"/>
        <path d="M987 1003 c-4 -3 -7 -19 -7 -34 0 -28 19 -42 45 -33 23 9 18 26 -5
19 -24 -8 -39 20 -21 38 9 9 14 8 21 -3 5 -8 12 -11 15 -8 4 4 4 11 0 17 -7
12 -38 15 -48 4z"/>
        <path d="M267 718 c-4 -56 -2 -97 4 -103 10 -10 61 -12 142 -5 l47 4 0 98 0
98 -94 0 -93 0 -6 -92z m173 -9 l0 -76 -31 -7 c-44 -8 -101 -7 -117 3 -9 5
-12 28 -11 67 3 94 -1 90 84 90 l75 -1 0 -76z"/>
        <path d="M2390 716 c0 -84 2 -97 19 -106 25 -13 110 -13 148 1 l30 10 -1 92
-1 92 -97 3 -98 4 0 -96z m175 -11 l0 -80 -77 -3 -78 -3 0 85 0 84 78 -1 77
-2 0 -80z"/>
    </g>
</svg>
