<svg id="Layer_1" data-name="Layer 1" xmlns="http://www.w3.org/2000/svg" viewBox="0 0 38.91 48"><path d="M38.65,6.14a.56.56,0,0,0,.36.07.77.77,0,0,0,.64-.35L41.7,2.1a.73.73,0,0,0-1.27-.71L38.37,5.15a.69.69,0,0,0,.28,1Z" transform="translate(-6.69 0.66)"/><path d="M28.09,6.5a.64.64,0,0,0,.57.28,1,1,0,0,0,.42-.14.63.63,0,0,0,.14-1L26.81,2.1a.64.64,0,0,0-1-.14.63.63,0,0,0-.14,1Z" transform="translate(-6.69 0.66)"/><path d="M33.19,5.57a.66.66,0,0,0,.71-.7V0a.66.66,0,0,0-.71-.7.67.67,0,0,0-.71.7V4.87A.67.67,0,0,0,33.19,5.57Z" transform="translate(-6.69 0.66)"/><path d="M42.2,13.73a3.31,3.31,0,0,0-2.48,1.06l-6,6a2,2,0,0,1-1.77,0L14.55,3.45a3.62,3.62,0,0,0-2.49-1.07A3.33,3.33,0,0,0,9.58,3.45a3.54,3.54,0,0,0,0,5l5.74,5.74a3.58,3.58,0,0,0-2,1A3.39,3.39,0,0,0,12.63,19,3.57,3.57,0,0,0,10.36,20,3.44,3.44,0,0,0,9.3,22.45a3.51,3.51,0,0,0,.49,1.91,4,4,0,0,0-2,1.07A3.35,3.35,0,0,0,7.45,30l9.72,9.71a7,7,0,0,0,.85.57,2.86,2.86,0,0,0,.64,1,1,1,0,0,0,.28.21l4.4,4.4A5.45,5.45,0,0,0,27,47.34a5.19,5.19,0,0,0,4-1.78l8.3-8.29a5.5,5.5,0,0,0,1.77-4c0-1.14-1.27-5.32-2.2-7.95l5.68-5.67a3.65,3.65,0,0,0,1.06-2.48,3.36,3.36,0,0,0-1.06-2.48,3.2,3.2,0,0,0-2.34-.92ZM14.33,16.07a2.19,2.19,0,0,1,3,0L28.87,27.63a2.18,2.18,0,0,1,0,3,2,2,0,0,1-2.48.29c-.15-.07-.29-.22-.43-.29L14.55,19.19a.07.07,0,0,0-.07-.07,2,2,0,0,1-.15-3.05ZM11.28,21a2.09,2.09,0,0,1,2.84-.14L25,31.67A1.59,1.59,0,0,1,25.46,33a2,2,0,0,1-.63,1.49,2.14,2.14,0,0,1-2.27.5,1.49,1.49,0,0,1-.57-.35L11.14,23.8a1.64,1.64,0,0,1-.49-1.35A2.39,2.39,0,0,1,11.28,21ZM8.59,29.11c0-.07-.07-.07-.14-.14a1.86,1.86,0,0,1,.35-2.62,2.44,2.44,0,0,1,1.63-.71A1.76,1.76,0,0,1,11.5,26a.07.07,0,0,0,.07.08l9.71,9.71a1.68,1.68,0,0,1,.43,1.2A2.28,2.28,0,0,1,21,38.4a2.36,2.36,0,0,1-1.85.71.53.53,0,0,1-.28-.07,1,1,0,0,1-.57-.35Zm35-10.35-6,6a.57.57,0,0,0-.14.71,55.8,55.8,0,0,1,2.27,7.94,4.06,4.06,0,0,1-1.35,3l-8.3,8.29a4,4,0,0,1-3,1.35,4.21,4.21,0,0,1-2.84-1.14c-.07-.07-.07-.07-.14-.07l-4-4c0-.07-.07-.07-.14-.14a4.82,4.82,0,0,0,.56-.21.24.24,0,0,0,.14-.07l.43-.22a.24.24,0,0,0,.14-.07,3.15,3.15,0,0,0,.5-.42,3.84,3.84,0,0,0,1.13-2.34V36.7h.36a1.36,1.36,0,0,0,.56-.07H24c.14-.07.35-.07.49-.14a.29.29,0,0,0,.15-.07,1.58,1.58,0,0,0,.49-.29l.07-.07c.14-.14.36-.28.5-.42a3.44,3.44,0,0,0,1.06-2.41v-.57h.5a1.62,1.62,0,0,0,.57-.07H28c.14-.07.35-.07.49-.14s.15-.07.22-.07l.42-.22c.07,0,.07-.07.14-.07s.36-.21.5-.35a3.54,3.54,0,0,0,0-5L10.58,7.63c0-.07-.07-.07-.15-.14a2.06,2.06,0,0,1,0-3,2,2,0,0,1,2.91,0c0,.07.07.07.14.14l7.66,7.66c0,.07.07.07.14.14l9.65,9.65c.07.07.14.07.14.14a3.73,3.73,0,0,0,3.26,0,.15.15,0,0,0,.14-.14l6.1-6.1a2.19,2.19,0,0,1,3,0,2.05,2.05,0,0,1,.64,1.49,1.72,1.72,0,0,1-.57,1.27Z" transform="translate(-6.69 0.66)"/></svg>