<svg id="Layer_1" data-name="Layer 1" xmlns="http://www.w3.org/2000/svg" viewBox="0 0 31.03 48"><path d="M39.53,17,10.19.06a.74.74,0,0,0-.81,0,.85.85,0,0,0-.44.71V30.16a.91.91,0,0,0,.38.71l29.34,17a1,1,0,0,0,.44.11,1.14,1.14,0,0,0,.43-.11.86.86,0,0,0,.44-.71V17.73a1.24,1.24,0,0,0-.44-.71ZM38.28,45.7l-27.7-16V2.19l27.7,16Z" transform="translate(-8.94 0.06)"/><path d="M23.34,35c.05,0,.11,0,.16,0a.2.2,0,0,0,.16,0l4.86-2.84a.21.21,0,0,0,.11-.22V21.66a.29.29,0,0,0-.11-.22l-8.95-5.13a.26.26,0,0,0-.27,0l-4.91,2.84a.21.21,0,0,0-.11.22V29.62a.31.31,0,0,0,.11.22ZM14.83,19.86l8.4,4.8v9.65l-8.4-4.86Zm8.94,14.45V24.66l4.31-2.51V31.8ZM19.46,16.86l8.35,4.8-4.31,2.5-8.4-4.79Z" transform="translate(-8.94 0.06)"/><path d="M21.21,15.66,30,20.73V30.87a.22.22,0,0,0,.16.22.18.18,0,0,1,.11.05.19.19,0,0,0,.16-.05l4-2.35a.21.21,0,0,0,.11-.21V18.28a.29.29,0,0,0-.11-.22l-8.94-5.18a.24.24,0,0,0-.28,0l-4,2.34a.23.23,0,0,0-.11.22.28.28,0,0,0,.11.22Zm9.32,14.72V20.73l3.49-2v9.65Zm-5.18-17,8.4,4.86-3.49,2-8.34-4.8Z" transform="translate(-8.94 0.06)"/></svg>